HIERARCHY
ROOT Hips
{
	OFFSET 0.00000 0.00000 0.00000
	CHANNELS 6 Xposition Yposition Zposition Yrotation Zrotation Xrotation 
	JOINT Lumbar
	{
		OFFSET 0 0 0
		CHANNELS 3 Zrotation Xrotation Yrotation
		JOINT Neck
		{
			OFFSET 0.00 0.2701 0.00
			CHANNELS 3 Zrotation Xrotation Yrotation
			End Site
			{
				OFFSET 0.00 0.1379 0.00
			}
		}
		JOINT RightShoulder
		{
			OFFSET 0.0119 0.2289 0.1181
			CHANNELS 3 Zrotation Xrotation Yrotation
			JOINT RightElbow
			{
				OFFSET 0.00 -0.1475 0.00
				CHANNELS 2 Zrotation Yrotation
				JOINT RightWrist
				{
					OFFSET 0.00 -0.1605 0.00
					CHANNELS 2 Zrotation Xrotation
					End Site
					{
						OFFSET 0.0040 -0.1068 0.0006
					}
				}
			}
		}
		JOINT LeftShoulder
		{
			OFFSET 0.0119 0.2289 -0.1181
			CHANNELS 3 Zrotation Xrotation Yrotation
			JOINT LeftElbow
			{
				OFFSET 0.00 -0.1475 0.00
				CHANNELS 2 Zrotation Yrotation
				JOINT LeftWrist
				{
					OFFSET 0.00 -0.1605 0.00
					CHANNELS 2 Zrotation Xrotation
					End Site
					{
						OFFSET 0.0040 -0.1068 -0.0006
					}
				}
			}
		}
	}
	JOINT RightHip
	{
		OFFSET 0.0316 -0.0424 0.0458
		CHANNELS 3 Zrotation Xrotation Yrotation
		JOINT RightKnee
		{
			OFFSET 0.00 -0.2438 0.00
			CHANNELS 1 Zrotation
			JOINT RightAnkle
			{
				OFFSET 0.00 -0.2449 0.00
				CHANNELS 3 Zrotation Xrotation Yrotation
				End Site
				{
					OFFSET 0.1237 -0.0542 0.0051
				}
			}
		}
	}
	JOINT LeftHip
	{
		OFFSET 0.0316 -0.0424 -0.0458
		CHANNELS 3 Zrotation Xrotation Yrotation
		JOINT LeftKnee
		{
			OFFSET 0.00 -0.2438 0.00
			CHANNELS 1 Zrotation
			JOINT LeftAnkle
			{
				OFFSET 0.00 -0.2449 0.00
				CHANNELS 3 Zrotation Xrotation Yrotation
				End Site
				{
					OFFSET 0.1237 -0.0542 -0.0051
				}
			}
		}
	}
}
MOTION
Frames: 14
Frame Time: 0.02
-0.00126 -0.00069 0.0001 175.93196 -29.33456 2.2931 46.72203 -0.88867 -7.71103 -15.81488 2.81679 -1.18227 -23.34916 0.06175 -35.71658 30.75901 150.78415 23.15229 10.82992 -28.20558 0.66133 19.76505 36.58467 -167.86472 36.56788 -13.06554 29.32652 -3.7767 -5.41381 -20.35268 -7.06639 -3.91573 -4.16175 32.92963 4.81657 5.48922 -24.48114 -6.53433 2.63434 3.47289
-0.00102 -0.00075 0.00013 175.87921 -29.30464 2.29833 46.7014 -0.88345 -7.70383 -15.81706 2.82893 -1.18286 -23.52826 -0.40004 -33.93981 30.60632 145.11464 21.53656 9.92813 -28.24123 1.21976 18.15153 36.55022 -161.67994 34.54029 -11.96873 29.32363 -3.84824 -5.74249 -20.37845 -7.03625 -3.88843 -4.14595 32.91077 4.80474 5.47892 -24.49077 -6.53024 2.62739 3.47359
-0.00078 -0.0008 0.00015 175.8267 -29.27492 2.30356 46.68072 -0.87822 -7.6966 -15.81925 2.84114 -1.18345 -23.70587 -0.85962 -32.17249 30.45322 139.47262 19.92842 9.03086 -28.2766 1.77671 16.54266 36.5159 -155.51457 32.51921 -10.87533 29.321 -3.91963 -6.07055 -20.40421 -7.00618 -3.8612 -4.13019 32.89223 4.79299 5.46888 -24.50043 -6.52617 2.62044 3.47426
-0.00054 -0.00086 0.00017 175.77413 -29.24507 2.30877 46.66018 -0.87302 -7.68943 -15.82147 2.85325 -1.18404 -23.88432 -1.31979 -30.40201 30.30086 133.82266 18.31821 8.13221 -28.31214 2.33343 14.9341 36.48153 -149.34871 30.49784 -9.78188 29.3181 -3.99096 -6.39832 -20.42991 -6.97612 -3.83398 -4.11444 32.87341 4.78121 5.45865 -24.51004 -6.5221 2.61351 3.47495
-0.0003 -0.00092 0.0002 175.7213 -29.21508 2.31397 46.63963 -0.86781 -7.68227 -15.82358 2.86524 -1.18463 -24.06443 -1.78264 -28.6201 30.14923 128.1402 16.69911 7.22816 -28.34795 2.89161 13.32092 36.4471 -143.1638 28.47002 -8.68509 29.31504 -4.06241 -6.72646 -20.45561 -6.94602 -3.80672 -4.09866 32.85435 4.76932 5.44807 -24.51961 -6.51802 2.60658 3.47566
-6e-05 -0.00097 0.00022 175.66946 -29.18599 2.31926 46.6186 -0.86252 -7.67488 -15.82585 2.87794 -1.18523 -24.23672 -2.23543 -26.88326 29.99308 122.58273 15.11388 6.34505 -28.38235 3.44596 11.72113 36.41305 -137.04013 26.46335 -7.59889 29.31343 -4.13368 -7.05426 -20.48149 -6.91601 -3.77955 -4.08293 32.837 4.75788 5.43917 -24.52947 -6.51396 2.5996 3.47627
0.00017 -0.00103 0.00024 175.61567 -29.15483 2.32435 46.59885 -0.85748 -7.66805 -15.82811 2.88915 -1.18578 -24.42492 -2.70747 -25.05905 29.84619 116.78372 13.46329 5.42145 -28.41975 4.00723 10.09655 36.37805 -130.79903 24.416 -6.49246 29.30841 -4.20523 -7.38267 -20.50695 -6.88583 -3.75221 -4.06711 32.81575 4.74556 5.4269 -24.53869 -6.50985 2.59274 3.47707
0.00042 -0.00108 0.00026 175.5637 -29.12611 2.32967 46.57738 -0.85204 -7.66054 -15.82982 2.90184 -1.18642 -24.59781 -3.16264 -23.31285 29.69075 111.20042 11.87106 4.53397 -28.45402 4.56242 8.49412 36.34434 -124.66796 22.40678 -5.40493 29.30743 -4.27651 -7.70999 -20.53285 -6.85585 -3.72505 -4.0514 32.79899 4.73399 5.41772 -24.54859 -6.50582 2.58576 3.4777
0.00067 -0.00114 0.00029 175.51388 -29.09831 2.3351 46.55593 -0.8468 -7.65285 -15.83307 2.91592 -1.18702 -24.7544 -3.59374 -21.67219 29.52468 105.90814 10.35756 3.69543 -28.4859 5.10926 6.92083 36.31059 -118.66194 20.4409 -4.33904 29.30786 -4.34754 -8.03826 -20.5591 -6.8259 -3.69799 -4.03573 32.78423 4.72359 5.41245 -24.55896 -6.50176 2.57863 3.47811
0.00084 -0.0012 0.0003 175.45146 -29.05902 2.33939 46.54073 -0.84246 -7.64816 -15.8341 2.92078 -1.1874 -25.01204 -4.15297 -19.45492 29.41922 99.0237 8.41328 2.58969 -28.53585 5.7014 5.18602 36.27219 -111.90788 18.21578 -3.14421 29.2896 -4.42028 -8.36796 -20.58276 -6.79514 -3.67 -4.01954 32.74746 4.70725 5.38509 -24.56557 -6.49748 2.57237 3.47976
0.00121 -0.00125 0.00034 175.41577 -29.04789 2.3464 46.50833 -0.83491 -7.63588 -15.83557 2.94584 -1.18854 -25.05192 -4.44853 -18.43428 29.18637 95.44515 7.36351 2.03837 -28.54491 6.19966 3.78825 36.2467 -106.75071 16.54404 -2.22436 29.31748 -4.48919 -8.69016 -20.61225 -6.7665 -3.64421 -4.00461 32.76382 4.70293 5.40404 -24.58077 -6.49393 2.56426 3.47882
0.00193 -0.00134 0.00041 175.45351 -29.08332 2.35841 46.45988 -0.82904 -7.61293 -15.87223 3.02073 -1.18921 -24.52395 -3.95884 -20.89297 28.59626 101.46539 8.91013 3.10023 -28.46215 6.42409 3.35506 36.23085 -105.85232 16.34783 -2.04051 29.41993 -4.54996 -9.02973 -20.656 -6.7403 -3.62241 -3.99189 32.87451 4.73571 5.55279 -24.61559 -6.49019 2.55121 3.47047
0.00288 -0.00143 0.00051 175.51839 -29.15322 2.37373 46.38761 -0.81782 -7.5806 -15.90244 3.11691 -1.1911 -23.77066 -3.21606 -24.51617 27.87987 110.70599 11.32808 4.70163 -28.33371 6.55721 3.25321 36.23226 -106.57195 16.71196 -2.13504 29.57949 -4.60673 -9.35551 -20.70661 -6.71682 -3.60317 -3.98065 33.04944 4.77957 5.74681 -24.66063 -6.48765 2.53632 3.4596
0.00381 -0.00151 0.00062 175.57045 -29.2268 2.38901 46.30687 -0.80239 -7.5457 -15.9142 3.20704 -1.19412 -23.10257 -2.62904 -27.47974 27.22598 118.13076 13.25553 5.99642 -28.21395 6.74282 2.97345 36.24322 -106.64219 16.85195 -2.11582 29.74544 -4.66344 -9.66183 -20.75439 -6.69432 -3.58418 -3.96959 33.22681 4.81595 5.91927 -24.70248 -6.48589 2.52212 3.45003
